<?xml version="1.0" encoding="utf-8"?>
<!-- Generator: Adobe Illustrator 22.1.0, SVG Export Plug-In . SVG Version: 6.00 Build 0)  -->
<svg version="1.1" id="Capa_1" xmlns="http://www.w3.org/2000/svg" xmlns:xlink="http://www.w3.org/1999/xlink" x="0px" y="0px"
	 viewBox="0 0 467.2 467.2" style="enable-background:new 0 0 467.2 467.2;" xml:space="preserve">
<style type="text/css">
	.st0{fill:#FFFFFF;}
</style>
<g>
	<g>
		<path class="st0" d="M455.1,120.9L363.4,4.6C361.1,1.7,357.7,0,354,0H113.2c-3.7,0-7.1,1.7-9.4,4.6L12.1,120.9
			c-1.7,2.1-2.6,4.7-2.6,7.4v326.9c0,6.6,5.4,12,12,12h424.1c6.6,0,12-5.4,12-12V128.3C457.7,125.6,456.8,123,455.1,120.9z
			 M422.5,118.3H245.6V24h102.6L422.5,118.3z M119,24h102.6v94.3H44.7L119,24z M33.5,443.2V142.3h400.1v300.9H33.5L33.5,443.2z"/>
		<path class="st0" d="M282,311.8l-36.5,36.5V211.6c0-6.6-5.4-12-12-12s-12,5.4-12,12v136.7L185.2,312c-4.7-4.7-12.3-4.7-17,0
			s-4.7,12.3,0,17l56.8,56.8l0,0c0.3,0.3,0.5,0.5,0.8,0.8c0.1,0.1,0.2,0.1,0.3,0.2c0.2,0.2,0.5,0.4,0.7,0.5c0.1,0,0.1,0.1,0.2,0.1
			c0.3,0.2,0.5,0.3,0.8,0.5c0.1,0,0.1,0,0.2,0.1c0.3,0.2,0.6,0.3,0.9,0.4h0.1c0.3,0.1,0.7,0.3,1,0.4h0.1c0.3,0.1,0.7,0.2,1,0.3
			c0.1,0,0.2,0,0.3,0c0.3,0,0.6,0.1,0.9,0.1c0.4,0,0.8,0.1,1.2,0.1s0.8,0,1.2-0.1c0.3,0,0.6-0.1,0.9-0.1c0.1,0,0.2,0,0.3,0
			c0.4-0.1,0.7-0.2,1-0.3h0.1c0.3-0.1,0.7-0.2,1-0.4h0.1c0.3-0.1,0.6-0.3,0.9-0.4c0,0,0.1,0,0.1-0.1c0.3-0.1,0.5-0.3,0.8-0.5
			c0.1,0,0.1-0.1,0.2-0.1c0.2-0.2,0.5-0.3,0.7-0.5c0.1-0.1,0.2-0.1,0.2-0.2c0.3-0.2,0.6-0.5,0.8-0.8l0,0l57-57
			c4.7-4.7,4.7-12.3,0-17C294.3,307.1,286.7,307.1,282,311.8z"/>
	</g>
</g>
</svg>
