<?xml version="1.0" encoding="utf-8"?>
<!-- Generator: Adobe Illustrator 22.1.0, SVG Export Plug-In . SVG Version: 6.00 Build 0)  -->
<svg version="1.1" id="Capa_1" xmlns="http://www.w3.org/2000/svg" xmlns:xlink="http://www.w3.org/1999/xlink" x="0px" y="0px"
	 viewBox="0 0 468.7 468.7" style="enable-background:new 0 0 468.7 468.7;" xml:space="preserve">
<style type="text/css">
	.st0{fill:#FFFFFF;}
</style>
<g>
	<g>
		<path class="st0" d="M449.4,0h-430c-6.6,0-12,5.4-12,12s5.4,12,12,12h25.9v432.4c0,4.4,2.4,8.5,6.3,10.6s8.6,1.9,12.3-0.6
			l52.1-34.7l52.3,34.8c4,2.7,9.3,2.7,13.3,0l52.1-34.7l52.3,34.8c4,2.7,9.3,2.7,13.3,0l52.1-34.7l52.3,34.8c2,1.3,4.3,2,6.6,2
			c1.9,0,3.9-0.5,5.7-1.4c3.9-2.1,6.3-6.2,6.3-10.6L422,24.3h27.3c6.6,0,12-5.4,12-12S456,0,449.4,0z M398.4,434l-40.3-26.8
			c-4-2.7-9.3-2.7-13.3,0L292.7,442l-52.3-34.8c-4-2.7-9.3-2.7-13.3,0L175,441.9l-52.3-34.7c-4-2.7-9.3-2.7-13.3,0l-40.1,26.7v-410
			h329L398.4,434z"/>
		<path class="st0" d="M124.4,191.6h125.7c6.6,0,12-5.4,12-12s-5.4-12-12-12H124.4c-6.6,0-12,5.4-12,12S117.8,191.6,124.4,191.6z"/>
		<path class="st0" d="M124.4,233.3h94.2c6.6,0,12-5.4,12-12s-5.4-12-12-12h-94.2c-6.6,0-12,5.4-12,12S117.8,233.3,124.4,233.3z"/>
		<path class="st0" d="M313,191.6h31.4c6.6,0,12-5.4,12-12s-5.4-12-12-12H313c-6.6,0-12,5.4-12,12S306.2,191.6,313,191.6z"/>
		<path class="st0" d="M313,233.3h31.4c6.6,0,12-5.4,12-12s-5.4-12-12-12H313c-6.6,0-12,5.4-12,12S306.2,233.3,313,233.3z"/>
		<path class="st0" d="M124.4,95.3h125.7c6.6,0,12-5.4,12-12s-5.4-12-12-12H124.4c-6.6,0-12,5.4-12,12S117.8,95.3,124.4,95.3z"/>
		<path class="st0" d="M124.4,136.9h94.2c6.6,0,12-5.4,12-12s-5.4-12-12-12h-94.2c-6.6,0-12,5.4-12,12
			C112.4,131.5,117.8,136.9,124.4,136.9z"/>
		<path class="st0" d="M313,95.3h31.4c6.6,0,12-5.4,12-12s-5.4-12-12-12H313c-6.6,0-12,5.4-12,12S306.2,95.3,313,95.3z"/>
		<path class="st0" d="M313,136.9h31.4c6.6,0,12-5.4,12-12s-5.4-12-12-12H313c-6.6,0-12,5.4-12,12C301,131.5,306.2,136.9,313,136.9z
			"/>
		<path class="st0" d="M124.4,289.1h125.7c6.6,0,12-5.4,12-12s-5.4-12-12-12H124.4c-6.6,0-12,5.4-12,12S117.8,289.1,124.4,289.1z"/>
		<path class="st0" d="M124.4,330.7h94.2c6.6,0,12-5.4,12-12s-5.4-12-12-12h-94.2c-6.6,0-12,5.4-12,12S117.8,330.7,124.4,330.7z"/>
		<path class="st0" d="M313,289.1h31.4c6.6,0,12-5.4,12-12s-5.4-12-12-12H313c-6.6,0-12,5.4-12,12S306.2,289.1,313,289.1z"/>
		<path class="st0" d="M313,330.7h31.4c6.6,0,12-5.4,12-12s-5.4-12-12-12H313c-6.6,0-12,5.4-12,12S306.2,330.7,313,330.7z"/>
	</g>
</g>
</svg>
