<?xml version="1.0" encoding="utf-8"?>
<!-- Generator: Adobe Illustrator 22.1.0, SVG Export Plug-In . SVG Version: 6.00 Build 0)  -->
<svg version="1.1" id="Capa_1" xmlns="http://www.w3.org/2000/svg" xmlns:xlink="http://www.w3.org/1999/xlink" x="0px" y="0px"
	 viewBox="0 0 467.2 467.2" style="enable-background:new 0 0 467.2 467.2;" xml:space="preserve">
<style type="text/css">
	.st0{fill:#FFFFFF;}
</style>
<g>
	<g>
		<g>
			<path class="st0" d="M168.4,227.2l41.7,41.7H54c-7.5,0-13.7,6.2-13.7,13.7s6.2,13.7,13.7,13.7h156l-41.4,41.4
				c-5.4,5.4-5.4,14,0,19.4s14,5.4,19.4,0l64.8-64.8l0,0c0.3-0.3,0.6-0.6,0.9-0.9c0.1-0.1,0.1-0.2,0.2-0.3c0.2-0.2,0.5-0.6,0.6-0.8
				c0-0.1,0.1-0.1,0.1-0.2c0.2-0.3,0.3-0.6,0.6-0.9c0-0.1,0-0.1,0.1-0.2c0.2-0.3,0.3-0.7,0.5-1v-0.1c0.1-0.3,0.3-0.8,0.5-1.1v-0.1
				c0.1-0.3,0.2-0.8,0.3-1.1c0-0.1,0-0.2,0-0.3c0-0.3,0.1-0.7,0.1-1c0-0.5,0.1-0.9,0.1-1.4s0-0.9-0.1-1.4c0-0.3-0.1-0.7-0.1-1
				c0-0.1,0-0.2,0-0.3c-0.1-0.5-0.2-0.8-0.3-1.1V279c-0.1-0.3-0.2-0.8-0.5-1.1v-0.1c-0.1-0.3-0.3-0.7-0.5-1c0,0,0-0.1-0.1-0.1
				c-0.1-0.3-0.3-0.6-0.6-0.9c0-0.1-0.1-0.1-0.1-0.2c-0.2-0.2-0.3-0.6-0.6-0.8c-0.1-0.1-0.1-0.2-0.2-0.2c-0.2-0.3-0.6-0.7-0.9-0.9
				l0,0l-65-65.7c-5.4-5.4-14-5.4-19.4,0C163,213.2,163,221.9,168.4,227.2z"/>
		</g>
	</g>
	<g>
		<g>
			<path class="st0" d="M298.8,240l-41.7-41.7h156.1c7.5,0,13.7-6.2,13.7-13.7s-6.2-13.7-13.7-13.7h-156l41.4-41.4
				c5.4-5.4,5.4-14,0-19.4s-14-5.4-19.4,0l-64.8,64.8l0,0c-0.3,0.3-0.6,0.6-0.9,0.9c-0.1,0.1-0.1,0.2-0.2,0.3
				c-0.2,0.2-0.5,0.6-0.6,0.8c0,0.1-0.1,0.1-0.1,0.2c-0.2,0.3-0.3,0.6-0.6,0.9c0,0.1,0,0.1-0.1,0.2c-0.2,0.3-0.3,0.7-0.5,1v0.1
				c-0.1,0.3-0.3,0.8-0.5,1.1v0.1c-0.1,0.3-0.2,0.8-0.3,1.1c0,0.1,0,0.2,0,0.3c0,0.3-0.1,0.7-0.1,1c0,0.5-0.1,0.9-0.1,1.4
				s0,0.9,0.1,1.4c0,0.3,0.1,0.7,0.1,1c0,0.1,0,0.2,0,0.3c0.1,0.5,0.2,0.8,0.3,1.1v0.1c0.1,0.3,0.2,0.8,0.5,1.1v0.1
				c0.1,0.3,0.3,0.7,0.5,1c0,0,0,0.1,0.1,0.1c0.1,0.3,0.3,0.6,0.6,0.9c0,0.1,0.1,0.1,0.1,0.2c0.2,0.2,0.3,0.6,0.6,0.8
				c0.1,0.1,0.1,0.2,0.2,0.2c0.2,0.3,0.6,0.7,0.9,0.9l0,0l65.1,65.1c5.4,5.4,14,5.4,19.4,0C304.2,254,304.2,245.3,298.8,240z"/>
		</g>
	</g>
</g>
</svg>
