<?xml version="1.0" encoding="utf-8"?>
<!-- Generator: Adobe Illustrator 22.0.1, SVG Export Plug-In . SVG Version: 6.00 Build 0)  -->
<svg version="1.1" id="Capa_1" xmlns="http://www.w3.org/2000/svg" xmlns:xlink="http://www.w3.org/1999/xlink" x="0px" y="0px"
	 viewBox="0 0 463.1 463.1" style="enable-background:new 0 0 463.1 463.1;" xml:space="preserve">
<path d="M342.7,73.8h-255L16,152v145.7V450c0,5.6,4.6,10.1,10.1,10.1h316.6c5.6,0,10.1-4.6,10.1-10.1v-95.2V179.1V84
	C352.8,78.4,348.2,73.8,342.7,73.8z M332.5,179.1v175.6v85H36.2V301.6v-120v-18.2l60.2-69.3h236.1V179.1z"/>
<path d="M437,3H182l-71.7,78.1v145.7v152.3c0,5.6,4.6,10.1,10.1,10.1H437c5.6,0,10.1-4.6,10.1-10.1v-95.2V108.3V13.1
	C447.1,7.5,442.6,3,437,3z M426.9,108.3v175.6v85H130.6V230.8v-120V92.5l60.2-69.3h236.1V108.3z"/>
</svg>
