<?xml version="1.0" encoding="utf-8"?>
<!-- Generator: Adobe Illustrator 22.0.1, SVG Export Plug-In . SVG Version: 6.00 Build 0)  -->
<svg version="1.1" id="Capa_1" xmlns="http://www.w3.org/2000/svg" xmlns:xlink="http://www.w3.org/1999/xlink" x="0px" y="0px"
	 viewBox="0 0 463.1 463.1" style="enable-background:new 0 0 463.1 463.1;" xml:space="preserve">
<g>
	<path d="M419.2,2.7H43.9c-6.6,0-12,5.4-12,12v180.6v72.7v180.6c0,6.6,5.4,12,12,12h375.3c6.6,0,12-5.4,12-12V335.7V127.5V14.7
		C431.2,8.1,425.8,2.7,419.2,2.7z M407.2,436.5H55.9V272.7v-82.3V26.7h351.3v100.8v208.2V436.5z"/>
	<path d="M99.6,95.9h261.6c6.6,0,12-5.4,12-12c0-6.6-5.4-12-12-12H99.6c-6.6,0-12,5.4-12,12C87.6,90.5,93,95.9,99.6,95.9z"/>
	<path d="M373.1,328.5c0-6.6-5.3-12-11.9-12H99.6c-6.6,0-12,5.4-12,12c0,6.6,5.4,12,12,12h261.5
		C367.7,340.5,373.1,335.1,373.1,328.5z"/>
	<path d="M361.2,378H141.1c-6.6,0-12,5.4-12,12c0,6.6,5.4,12,12,12h220.1c6.6,0,12-5.4,12-12C373.2,383.4,367.8,378,361.2,378z"/>
	<path d="M225.9,279.6c6.6,0,12-5.4,12-12V137.8c0-6.6-5.4-12-12-12H95.6c-6.6,0-12,5.4-12,12v129.8c0,6.6,5.4,12,12,12H225.9z
		 M107.6,149.8h106.3v105.8H107.6V149.8z"/>
	<path d="M367.6,137.8h-86.3c-6.6,0-12,5.4-12,12c0,6.6,5.4,12,12,12h86.3c6.6,0,12-5.4,12-12C379.6,143.2,374.3,137.8,367.6,137.8z
		"/>
	<path d="M367.6,192h-86.3c-6.6,0-12,5.4-12,12c0,6.6,5.4,12,12,12h86.3c6.6,0,12-5.4,12-12C379.6,197.4,374.3,192,367.6,192z"/>
	<path d="M367.6,249.6h-86.3c-6.6,0-12,5.4-12,12c0,6.6,5.4,12,12,12h86.3c6.7,0,12-5.4,12-12C379.6,255,374.2,249.6,367.6,249.6z"
		/>
</g>
</svg>
