<?xml version="1.0" encoding="utf-8"?>
<!-- Generator: Adobe Illustrator 22.0.1, SVG Export Plug-In . SVG Version: 6.00 Build 0)  -->
<svg version="1.1" id="Capa_1" xmlns="http://www.w3.org/2000/svg" xmlns:xlink="http://www.w3.org/1999/xlink" x="0px" y="0px"
	 viewBox="0 0 2494.8 403.4" style="enable-background:new 0 0 2494.8 403.4;" xml:space="preserve">
<style type="text/css">
	.st0{fill:url(#SVGID_1_);}
	.st1{fill:url(#SVGID_2_);}
</style>
<title>logo ecommer</title>
<linearGradient id="SVGID_1_" gradientUnits="userSpaceOnUse" x1="0" y1="202.5687" x2="324.93" y2="202.5687" gradientTransform="matrix(1 0 0 -1 0 404.2582)">
	<stop  offset="0" style="stop-color:#21C8CC"/>
	<stop  offset="1" style="stop-color:#2595EC"/>
</linearGradient>
<path class="st0" d="M302.4,91.1c-0.7-8.4-7.7-14.9-16.2-14.8h-41.1c-3.7-45.7-43.6-79.7-89.3-76.1C115.2,3.5,83,35.7,79.8,76.3
	H38.7c-8.4,0-15.4,6.4-16.2,14.8L0,344.3v1.5c0,31.8,28.8,57.7,64.3,57.7h196.4c35.4,0,64.3-25.9,64.3-57.7v-1.2L302.4,91.1z
	 M112.3,76.3c3.7-27.7,29-47.1,56.7-43.5c22.7,3,40.5,20.8,43.5,43.5H112.3z M95.7,152.5c8.9,0,16.2-7.3,16.2-16.2v-27.5H213v27.5
	c0.2,8.9,7.7,16,16.6,15.8c8.6-0.2,15.6-7.2,15.8-15.8v-27.5h26l21.1,237.6c-0.4,13.6-14.6,24.5-31.9,24.5H64.3
	c-17.2,0-31.5-11-31.9-24.6l21.1-237.5h26v27.5C79.5,145.2,86.8,152.5,95.7,152.5L95.7,152.5z"/>
<path d="M713.5,223.6c-0.8,6.8-0.8,13.8,0,20.6c0.4,5.4,1.8,10.7,4.1,15.6c1.9,4,4.7,7.6,8.1,10.5c3.2,2.6,6.8,4.6,10.8,5.9
	c3.9,1.3,8,1.9,12.1,1.9c4.2,0.1,8.3-0.3,12.4-1.2c5.6-1.2,10.7-4.1,14.6-8.4c1.8-2,3.4-4.1,4.9-6.3c1.2-1.9,2.6-3.6,4.1-5.3
	c1.4-1.7,3.4-2.6,5.6-2.7h22.4c2.1,0,4.2,0.8,5.7,2.3c1.6,1.4,2.4,3.5,2.2,5.6c-0.2,4.1-1.7,9.1-4.4,15c-3.1,6.4-7.5,12.2-12.8,17
	c-5.8,5.4-13.2,10-22.2,13.7s-19.8,5.6-32.4,5.6c-10,0.2-19.9-1.7-29.1-5.4c-8.4-3.5-16-8.4-22.5-14.7c-6.3-6.1-11.4-13.4-15-21.5
	c-3.6-8.2-5.9-16.9-6.6-25.8c-0.4-3.9-0.6-7.8-0.6-11.8c0-4,0.2-8.1,0.6-12.1c0.6-9,2.8-17.7,6.5-25.9c3.6-8.1,8.7-15.4,15-21.6
	c6.5-6.3,14.1-11.3,22.5-14.7c9.3-3.7,19.3-5.6,29.3-5.5c12.6,0,23.4,1.9,32.4,5.6c9,3.7,16.4,8.3,22.2,13.7
	c5.3,4.8,9.7,10.5,12.8,16.9c2.7,5.9,4.2,10.9,4.4,15c0.2,2.1-0.6,4.2-2.2,5.6c-1.5,1.5-3.6,2.4-5.7,2.3h-22.4c-2.2,0-4.2-1-5.6-2.7
	c-1.5-1.7-2.9-3.4-4.1-5.3c-1.5-2.2-3.1-4.3-4.9-6.3c-1.8-1.9-3.8-3.6-6-5c-2.6-1.6-5.5-2.7-8.5-3.4c-4.1-0.9-8.2-1.3-12.4-1.2
	c-4.1,0-8.2,0.6-12.1,1.9c-3.9,1.3-7.6,3.3-10.8,5.9c-3.4,2.9-6.2,6.4-8.1,10.5C715.3,212.9,713.9,218.2,713.5,223.6z"/>
<path d="M964,154.4c10-0.1,19.9,1.6,29.3,5c8.4,3.1,16.1,7.8,22.7,13.8c6.3,5.9,11.5,12.8,15.3,20.6c3.8,7.9,6.1,16.5,6.6,25.3
	c0.2,2.2,0.3,4.5,0.3,6.8v16.3c0,2.2-0.1,4.4-0.3,6.6c-0.7,8.8-3,17.4-6.8,25.3c-3.7,7.8-8.8,14.7-15.2,20.5
	c-6.6,5.9-14.3,10.6-22.7,13.7c-19,6.7-39.6,6.7-58.6,0c-8.3-3.1-16-7.7-22.7-13.7c-6.4-5.7-11.5-12.7-15.2-20.5
	c-3.8-8-6.1-16.5-6.8-25.3c-0.2-1.8-0.3-4-0.4-6.6c-0.1-2.7-0.2-5.3-0.2-8.1s0-5.5,0.2-8.2s0.2-5,0.4-6.8c0.5-8.8,2.8-17.4,6.6-25.3
	c3.8-7.8,9-14.8,15.3-20.6c6.6-6,14.3-10.7,22.7-13.8C944.1,156,954,154.3,964,154.4z M999.6,220.7c-0.4-5.3-1.8-10.5-4.3-15.2
	c-2-3.8-4.9-7-8.4-9.6c-3.3-2.3-7-4-10.9-4.9c-7.9-1.8-16.2-1.8-24.1,0c-3.9,0.9-7.6,2.5-10.9,4.9c-3.5,2.5-6.3,5.8-8.4,9.6
	c-2.4,4.7-3.9,9.9-4.3,15.2c-0.2,1.6-0.4,3.5-0.4,5.9c-0.1,2.4-0.1,4.8-0.1,7.4s0,5.1,0.1,7.5s0.2,4.4,0.4,5.7
	c0.4,5.3,1.8,10.5,4.3,15.2c2,3.8,4.9,7,8.4,9.6c3.3,2.3,7,4,10.9,4.8c7.9,1.8,16.2,1.8,24.1,0c3.9-0.9,7.6-2.5,10.9-4.8
	c3.5-2.5,6.3-5.8,8.4-9.6c2.5-4.7,3.9-9.9,4.3-15.2c0.2-1.9,0.3-3.8,0.3-5.7v-14.9C1000,224.6,999.9,222.6,999.6,220.7z"/>
<path d="M1154.2,172.1c4.6-5.6,10.5-10.1,17.1-13.1c6.6-3,13.7-4.6,20.9-4.6c12.4,0,22.5,2.3,30.3,6.9c7.6,4.4,14,10.6,18.5,18.1
	c2.6-4,5.8-7.5,9.4-10.6c3.7-3.1,7.7-5.8,11.9-8c4.2-2.1,8.6-3.8,13.1-4.9c4.3-1.1,8.8-1.6,13.2-1.6c11.2,0,20.5,1.9,28,5.6
	c7.2,3.5,13.4,8.6,18.1,15c4.7,6.6,8,14,9.7,21.9c1.9,8.7,2.8,17.5,2.8,26.3v79.2c0,4.4-3.6,8-7.9,8H1317c-4.4,0-8-3.6-8-8v-77.7
	c0-13.3-2.5-22.7-7.6-28c-5.1-5.3-12.3-8-21.5-7.9c-7.5-0.1-14.7,2.6-20.2,7.7c-5.6,5.1-8.6,14-9,26.8v79.2c0,4.4-3.6,8-8,8h-22.4
	c-4.4,0-7.9-3.6-7.9-8v-77.7c0-13.3-2.5-22.7-7.6-28c-5.1-5.3-12.3-8-21.5-7.9c-7.7-0.1-15.1,2.8-20.6,8.1
	c-5.7,5.4-8.5,14.7-8.5,27.8v77.7c0,4.4-3.6,8-8,8h-22.4c-4.4,0-8-3.6-8-8V165.3c0-4.4,3.6-8,8-8h22.4c4.4,0,8,3.6,8,8L1154.2,172.1
	z"/>
<path d="M1468.9,172.1c4.6-5.6,10.5-10.1,17.1-13.1c6.6-3,13.7-4.6,20.9-4.6c12.4,0,22.5,2.3,30.3,6.9c7.6,4.4,14,10.6,18.5,18.1
	c2.6-4,5.8-7.5,9.4-10.6c3.7-3.1,7.7-5.8,11.9-8c4.2-2.1,8.6-3.8,13.1-4.9c4.3-1.1,8.8-1.6,13.2-1.6c11.2,0,20.5,1.9,28,5.6
	c7.2,3.5,13.4,8.6,18.1,15c4.7,6.6,8,14,9.7,21.9c1.9,8.7,2.8,17.5,2.8,26.3v79.2c0,4.4-3.6,8-8,8h-22.4c-4.4,0-7.9-3.6-7.9-8v-77.7
	c0-13.3-2.6-22.7-7.6-28c-5.1-5.3-12.3-8-21.5-7.9c-7.5-0.1-14.7,2.6-20.2,7.7c-5.6,5.1-8.6,14-9,26.8v79.2c0,4.4-3.6,8-7.9,8h-22.3
	c-4.4,0-8-3.6-8-8v-77.7c0-13.3-2.6-22.7-7.6-28c-5.1-5.3-12.3-8-21.5-7.9c-7.7-0.1-15.1,2.8-20.6,8.1c-5.7,5.4-8.5,14.7-8.5,27.8
	v77.7c0,4.4-3.6,8-7.9,8h-22.4c-4.4,0-7.9-3.6-7.9-8V165.3c0-4.4,3.6-8,7.9-8h22.4c4.4,0,7.9,3.6,7.9,8L1468.9,172.1z"/>
<path d="M1737.6,233.9c-0.1-10.5,1.6-21,5-31c3.1-9.3,8-17.9,14.4-25.3c6.3-7.2,14.1-13,22.8-16.9c9.4-4.2,19.6-6.3,29.9-6.2
	c10.3-0.2,20.5,1.9,29.9,6c8.6,3.8,16.4,9.3,22.8,16.2c6.4,6.9,11.3,15,14.6,23.8c3.4,9.2,5.2,18.9,5.1,28.7v13.2
	c-0.1,4.4-3.6,7.9-8,8h-98.3c-0.1,4.1,0.9,8.2,2.8,11.9c1.8,3.4,4.4,6.4,7.5,8.7c3.3,2.4,7,4.2,10.9,5.3c4.1,1.2,8.4,1.8,12.7,1.8
	c5.2,0.1,10.3-0.5,15.3-1.9c3.5-1.1,6.8-2.7,9.7-4.9c1.6-1.3,3.4-2.3,5.3-3.2c1.8-0.7,3.7-1,5.6-0.9h23.6c2.1,0,4.2,0.8,5.7,2.3
	c1.6,1.4,2.4,3.5,2.2,5.6c-0.2,2.8-1.7,6.3-4.6,10.6s-7.1,8.5-12.8,12.7c-6.5,4.5-13.5,8.1-21,10.6c-8.4,2.9-18,4.4-29,4.4
	c-10.2,0.1-20.4-1.8-29.9-5.7c-8.7-3.7-16.5-9.3-22.8-16.3c-6.4-7.4-11.3-15.9-14.4-25.2C1739.2,255.7,1737.5,244.9,1737.6,233.9z
	 M1809.8,189.8c-5-0.1-9.9,0.7-14.6,2.5c-3.8,1.5-7.2,3.7-10.1,6.5c-2.7,2.5-4.8,5.5-6.3,8.8c-1.4,2.9-2.3,6.1-2.8,9.3h66.5
	c-0.4-3.2-1.2-6.3-2.2-9.3c-1.1-3.3-2.9-6.3-5.3-8.8c-2.7-2.8-6-5-9.7-6.5C1821.2,190.6,1816,189.8,1809.8,189.8L1809.8,189.8z"/>
<path d="M2029.9,192.7c-11.8,0-20.3,2.6-25.5,7.8s-7.8,13.7-7.8,25.5v76.5c0,4.4-3.6,8-7.9,8h-22.4c-4.4,0-8-3.6-8-8V165.3
	c0-4.4,3.6-8,8-8h22.4c4.4,0,7.9,3.6,7.9,8v6.8c4.8-4.5,10.3-8.2,16.3-10.9c5.8-2.5,13.4-3.8,22.8-3.8h13.2c4.4,0,7.9,3.6,7.9,8
	v19.4c0,4.4-3.6,8-7.9,8L2029.9,192.7z"/>
<path d="M2140.9,265.7c4.4,0,7.9,3.6,7.9,7.9v28.8c0,4.4-3.6,8-7.9,8h-27.4c-4.4,0-7.9-3.6-7.9-8v-28.8c0-4.4,3.6-7.9,7.9-7.9
	H2140.9z"/>
<path d="M2312.8,313.4c-5.5,0.1-11-0.5-16.3-1.8c-4.4-1-8.6-2.5-12.7-4.4c-3.3-1.6-6.4-3.5-9.3-5.7c-2.2-1.7-4.3-3.7-6.2-5.7v62.7
	c0,4.4-3.6,8-8,8H2238c-4.4,0-7.9-3.6-7.9-8V165.3c0-4.4,3.6-8,7.9-8h22.4c4.4,0,8,3.6,8,8v6.8c1.9-2.1,4-4,6.2-5.7
	c2.9-2.3,6-4.2,9.3-5.8c4.1-1.9,8.3-3.4,12.7-4.4c5.4-1.3,10.8-1.9,16.3-1.8c9.2-0.1,18.3,1.8,26.6,5.7c7.8,3.7,14.7,8.9,20.4,15.3
	c5.7,6.5,10.2,14,13.2,22.1c3.2,8.3,5.1,17.1,5.4,26c0.2,2.9,0.3,6.4,0.3,10.3s-0.1,7.4-0.3,10.3c-0.4,8.9-2.2,17.7-5.4,26
	c-3.1,8.1-7.6,15.6-13.2,22.1c-5.7,6.4-12.6,11.6-20.3,15.3C2331.2,311.6,2322,313.5,2312.8,313.4z M2340.2,242.1
	c0.6-5.5,0.6-11,0-16.5c-1.2-12.7-5.1-21.9-11.8-27.5c-6.7-5.6-14.8-8.4-24.4-8.4c-9.6,0-17.7,2.8-24.3,8.5
	c-6.6,5.7-10.4,13.8-11.3,24.4c-0.8,7.4-0.8,14.9,0,22.4c1,10.2,4.8,18.3,11.3,24.1c6.6,5.9,14.7,8.8,24.3,8.8
	c9.6,0,17.8-2.8,24.4-8.4S2339,254.9,2340.2,242.1z"/>
<path d="M2494.7,302.5c0,4.4-3.5,8-7.9,8h-22.4c-4.4,0-8-3.6-8-8V109.4c0-4.4,3.6-7.9,8-7.9h22.4c4.4,0,7.9,3.6,7.9,7.9
	L2494.7,302.5z"/>
<linearGradient id="SVGID_2_" gradientUnits="userSpaceOnUse" x1="461.8034" y1="170.3194" x2="606.3506" y2="170.3194" gradientTransform="matrix(1 0 0 -1 0 404.2582)">
	<stop  offset="0" style="stop-color:#21C8CC"/>
	<stop  offset="1" style="stop-color:#2595EC"/>
</linearGradient>
<path class="st1" d="M461.8,233.9c-0.1-10.5,1.6-21,5-31c3.1-9.3,8-17.9,14.4-25.3c6.3-7.2,14.1-13,22.8-16.9
	c9.4-4.2,19.6-6.3,29.9-6.2c10.3-0.2,20.5,1.9,29.9,6c8.6,3.8,16.4,9.3,22.8,16.2c6.4,6.9,11.3,15,14.6,23.8
	c3.4,9.2,5.2,18.9,5.2,28.7v13.2c-0.1,4.4-3.6,7.9-8,8h-98.2c-0.1,4.1,0.9,8.2,2.8,11.9c1.8,3.4,4.4,6.4,7.5,8.7
	c3.3,2.4,7,4.2,10.9,5.3c4.1,1.2,8.4,1.8,12.7,1.8c5.2,0.1,10.3-0.5,15.3-1.9c3.5-1.1,6.8-2.7,9.7-4.9c1.6-1.3,3.4-2.3,5.3-3.2
	c1.8-0.7,3.7-1,5.6-0.9h23.6c2.1,0,4.2,0.8,5.7,2.3c1.6,1.4,2.4,3.5,2.2,5.6c-0.2,2.8-1.7,6.3-4.6,10.6s-7.1,8.5-12.8,12.7
	c-6.5,4.5-13.5,8.1-21,10.6c-8.4,2.9-18,4.4-29,4.4c-10.2,0.1-20.4-1.8-29.9-5.7c-8.7-3.7-16.5-9.3-22.8-16.3
	c-6.5-7.3-11.4-15.9-14.5-25.2C463.4,255.7,461.7,244.9,461.8,233.9z M533.9,189.8c-5-0.1-9.9,0.7-14.6,2.5
	c-3.8,1.5-7.2,3.7-10.2,6.5c-2.7,2.5-4.8,5.5-6.3,8.8c-1.4,2.9-2.3,6.1-2.8,9.3h66.5c-0.4-3.2-1.2-6.3-2.2-9.3
	c-1.1-3.3-2.9-6.3-5.3-8.8c-2.7-2.8-6-5-9.7-6.5C545.4,190.6,540.2,189.8,533.9,189.8L533.9,189.8z"/>
</svg>
