<?xml version="1.0" encoding="utf-8"?>
<!-- Generator: Adobe Illustrator 22.1.0, SVG Export Plug-In . SVG Version: 6.00 Build 0)  -->
<svg version="1.1" id="Capa_1" xmlns="http://www.w3.org/2000/svg" xmlns:xlink="http://www.w3.org/1999/xlink" x="0px" y="0px"
	 viewBox="0 0 483.3 483.3" style="enable-background:new 0 0 483.3 483.3;" xml:space="preserve">
<style type="text/css">
	.st0{fill:#FFFFFF;}
</style>
<g>
	<g>
		<g>
			<path class="st0" d="M424.3,57.8H59.1C26.5,57.8,0,84.3,0,116.9v249.6c0,32.6,26.5,59.1,59.1,59.1h365.1
				c32.6,0,59.1-26.5,59.1-59.1V117C483.4,84.4,456.9,57.8,424.3,57.8z M456.4,366.5c0,17.7-14.4,32.1-32.1,32.1H59.1
				c-17.7,0-32.1-14.4-32.1-32.1V117c0-17.7,14.4-32.1,32.1-32.1h365.1c17.7,0,32.1,14.4,32.1,32.1L456.4,366.5L456.4,366.5z"/>
		</g>
	</g>
</g>
<g>
	<path class="st0" d="M241.7,371.1c-53.9,0-97.8-43.9-97.8-97.8c0-53.9,43.9-97.8,97.8-97.8c53.9,0,97.8,43.9,97.8,97.8
		C339.5,327.2,295.6,371.1,241.7,371.1z M241.7,195.5c-42.9,0-77.8,34.9-77.8,77.8s34.9,77.8,77.8,77.8s77.8-34.9,77.8-77.8
		S284.6,195.5,241.7,195.5z"/>
</g>
<g>
	<g>
		<path class="st0" d="M241.7,251.8c12.5,0,22.5,10,22.5,22.5s-10,22.5-22.5,22.5s-22.5-10-22.5-22.5S229.2,251.8,241.7,251.8
			 M241.7,213.3c-33.7,0-61,27.3-61,61s27.3,61,61,61s61-27.3,61-61S275.3,213.3,241.7,213.3L241.7,213.3z"/>
	</g>
</g>
<g>
	<rect x="310.4" y="34.3" class="st0" width="95.6" height="31"/>
</g>
</svg>
