<?xml version="1.0" encoding="utf-8"?>
<!-- Generator: Adobe Illustrator 22.0.1, SVG Export Plug-In . SVG Version: 6.00 Build 0)  -->
<svg version="1.1" id="Warstwa_1" xmlns="http://www.w3.org/2000/svg" xmlns:xlink="http://www.w3.org/1999/xlink" x="0px" y="0px"
	 viewBox="0 0 482 482" style="enable-background:new 0 0 482 482;" xml:space="preserve">
<style type="text/css">
	.st0{stroke:url(#SVGID_1_);stroke-miterlimit:10;}
</style>
<g>
	<linearGradient id="SVGID_1_" gradientUnits="userSpaceOnUse" x1="0" y1="241" x2="482" y2="241">
		<stop  offset="0" style="stop-color:#FFFFFF"/>
		<stop  offset="1" style="stop-color:#000000"/>
	</linearGradient>
	<path class="st0" d="M333.6,356.2l120.7,120.6c3,3,7,4.7,11.3,4.7s8.2-1.7,11.3-4.7c3-3,4.7-7,4.7-11.2c0-4.3-1.7-8.2-4.7-11.2
		L356.1,333.7l2.6-3.2c29.5-36,45.8-81.5,45.8-128c0-111.4-90.6-202-202-202c-111.4,0-202,90.6-202,202c0,111.4,90.6,202,202,202
		c46.6,0,92-16.2,127.9-45.7L333.6,356.2z M202.5,372.4c-93.7,0-170-76.2-170-169.9c0-93.7,76.3-170,170-170s170,76.3,170,170
		C372.5,296.2,296.2,372.4,202.5,372.4z"/>
</g>
</svg>
